<svg xmlns="http://www.w3.org/2000/svg" width="820" height="320" viewBox="0 0 820 320">
  <defs>
    <symbol id="icon" viewBox="0 0 256 256"><circle cx="128" cy="128" r="116" fill="#40345f" stroke="#17201b" stroke-width="12"/><path d="M128 17v222M17 128h222M49 49l158 158M207 49 49 207" stroke="#ffd76a" stroke-width="10"/><circle cx="128" cy="128" r="91" fill="none" stroke="#fffaf0" stroke-width="10"/><g stroke="#17201b" stroke-width="8" stroke-linejoin="round"><path d="M66 104Q45 72 76 63l20 19q31-17 64 0l20-19q31 9 10 41l8 73q4 52-70 52t-70-52z" fill="#ffd76a"/><path d="m84 79-11-32 32 22m66 10 11-32-32 22" fill="#ffd76a"/><circle cx="101" cy="126" r="9" fill="#17201b"/><circle cx="155" cy="126" r="9" fill="#17201b"/><ellipse cx="128" cy="177" rx="45" ry="32" fill="#ffbeaa"/><circle cx="114" cy="174" r="5"/><circle cx="142" cy="174" r="5"/><path d="M112 190q16 13 32 0" fill="none" stroke-linecap="round"/></g></symbol>
  </defs>
  <rect width="820" height="320" fill="#f7f8f5"/><g font-family="'Noto Sans JP',sans-serif"><text x="28" y="35" fill="#637069" font-size="11" font-weight="800" letter-spacing="1.3">MANIMANI ICON MASTER · FACE IN WHEEL</text><use href="#icon" x="28" y="52" width="240" height="240"/><text x="148" y="310" fill="#17201b" font-size="11" font-weight="800" text-anchor="middle">APP / 256</text><use href="#icon" x="348" y="99" width="144" height="144"/><text x="420" y="264" fill="#17201b" font-size="11" font-weight="800" text-anchor="middle">AGENT / 64</text><use href="#icon" x="610" y="131" width="80" height="80"/><text x="650" y="232" fill="#17201b" font-size="11" font-weight="800" text-anchor="middle">GLYPH / 24</text><text x="420" y="290" fill="#637069" font-size="10" text-anchor="middle">耳 · 角 · 目 · ピンクの鼻を全サイズで保持</text></g>
</svg>
