<svg xmlns="http://www.w3.org/2000/svg" width="1680" height="924" viewBox="0 0 1680 924">
  <defs>
    <filter id="shadow"><feDropShadow dx="0" dy="12" stdDeviation="14" flood-color="#17201b" flood-opacity=".16"/></filter>
    <filter id="lift"><feDropShadow dx="0" dy="5" stdDeviation="5" flood-color="#17201b" flood-opacity=".18"/></filter>
    <linearGradient id="paper" x2="0" y2="1"><stop stop-color="#fffaf0"/><stop offset="1" stop-color="#f7f0db"/></linearGradient>
    <linearGradient id="mint" x2="1" y2="1"><stop stop-color="#9be7d0"/><stop offset="1" stop-color="#65ccb2"/></linearGradient>
    <linearGradient id="sun" x2="1" y2="1"><stop stop-color="#ffd76a"/><stop offset="1" stop-color="#f2b84b"/></linearGradient>
    <pattern id="dots" width="24" height="24" patternUnits="userSpaceOnUse"><circle cx="2" cy="2" r="1" fill="#17201b" opacity=".045"/></pattern>
    <symbol id="wheel" viewBox="0 0 160 160">
      <g class="wheel"><circle cx="80" cy="80" r="65" fill="#40345f" stroke="#17201b" stroke-width="6"/><circle cx="80" cy="80" r="49" fill="none" stroke="#ffd76a" stroke-width="5"/><path d="M80 19v122M19 80h122M37 37l86 86M123 37l-86 86" stroke="#ffd76a" stroke-width="7" stroke-linecap="round"/><circle cx="80" cy="80" r="13" fill="#fff4cf" stroke="#17201b" stroke-width="5"/></g>
    </symbol>
    <symbol id="cow" viewBox="0 0 175 150">
      <g stroke="#17201b" stroke-width="5" stroke-linecap="round" stroke-linejoin="round"><path d="M25 49C8 30 14 12 36 29M142 49c17-19 11-37-12-20" fill="#f2b84b"/><path d="M28 51C24 19 144 18 140 53l9 51c5 31-27 43-61 43s-66-12-62-43z" fill="#ffd76a"/><path d="m46 35-12-23 29 15m61 8 12-23-29 15" fill="#ffd76a"/><circle cx="64" cy="67" r="5" fill="#17201b" stroke="none"/><circle cx="113" cy="67" r="5" fill="#17201b" stroke="none"/><ellipse cx="88" cy="105" rx="40" ry="27" fill="#ffbeaa"/><circle cx="74" cy="104" r="3.5" fill="#17201b" stroke="none"/><circle cx="102" cy="104" r="3.5" fill="#17201b" stroke="none"/><path d="M77 118q11 9 22 0" fill="none"/></g>
    </symbol>
    <symbol id="runnerCow" viewBox="0 0 150 92">
      <g stroke="#17201b" stroke-width="4" stroke-linecap="round" stroke-linejoin="round">
        <ellipse cx="77" cy="47" rx="48" ry="29" fill="#ffd76a"/>
        <path d="M111 31q22-15 31 6l-2 28q-2 18-24 14l-15-12z" fill="#ffd76a"/>
        <path d="m120 28 2-16 10 14m5 4 9-10-2 18" fill="#ffd76a"/>
        <path d="M31 38Q15 24 10 39" fill="none"/>
        <ellipse cx="126" cy="59" rx="13" ry="10" fill="#ffbeaa"/>
        <circle cx="124" cy="42" r="3" fill="#17201b"/>
        <path d="M51 69 33 86M72 72l14 14M94 70 78 87M110 67l18 15" fill="none" stroke-width="6"/>
        <path d="M52 29q10 10 21 1m7 33q10-12 19 0" fill="#40345f"/>
      </g>
    </symbol>
    <symbol id="mascot" viewBox="0 0 200 180">
      <circle cx="100" cy="88" r="78" fill="#fffdf6" stroke="#17201b" stroke-width="5"/>
      <use href="#wheel" x="20" y="8" width="160" height="160"/>
      <path d="M42 126q58 26 116 0" fill="none" stroke="#17201b" stroke-width="6" stroke-linecap="round"/>
      <g class="runner"><use href="#runnerCow" x="42" y="63" width="120" height="74"/></g>
      <path d="M34 145h20M146 145h20" stroke="#ed6e5c" stroke-width="5" stroke-linecap="round"/>
    </symbol>
    <symbol id="nav" viewBox="0 0 358 66"><rect width="358" height="66" rx="24" fill="#fffdf6" stroke="#17201b" stroke-width="2"/><g font-family="'Noto Sans JP',-apple-system,BlinkMacSystemFont,sans-serif" font-size="9" font-weight="800" text-anchor="middle" fill="#637069"><text x="45" y="43">HOME</text><text x="134" y="43">INBOX</text><text x="224" y="43">WALK</text><text x="313" y="43">CHAT</text></g></symbol>
    <style>
      .wheel{transform-box:fill-box;transform-origin:center;animation:turn 8s linear infinite}.runner{transform-box:fill-box;transform-origin:center bottom;animation:run .42s ease-in-out infinite alternate}.mascot:hover .wheel{animation-duration:2.8s}.mascot:hover .runner{animation-duration:.24s}.mascot:active .wheel{animation-duration:.9s}.mascot:active .runner{animation-duration:.12s}.pulse{animation:pulse 2.4s ease-in-out infinite}@keyframes turn{to{transform:rotate(360deg)}}@keyframes run{to{transform:translateY(-3px) rotate(-1.5deg)}}@keyframes pulse{50%{transform:scale(1.025)}}@media(prefers-reduced-motion:reduce){.wheel,.runner,.pulse{animation:none!important}}
    </style>
  </defs>
  <rect width="1680" height="924" fill="#17201b"/><text x="30" y="25" fill="#c9d0cb" font-family="-apple-system,sans-serif" font-size="10" font-weight="700" letter-spacing="1.4">MANIMANI EXPERIENCE UI / KINETIC COMPANION</text><text x="1650" y="25" fill="#c9d0cb" font-family="-apple-system,sans-serif" font-size="10" font-weight="700" text-anchor="end">FOUNDATION 70 · COMPANION 20 · REWARD 10</text>

  <!-- HOME -->
  <g id="Home" transform="translate(30 40)" font-family="'Noto Sans JP',-apple-system,BlinkMacSystemFont,sans-serif" filter="url(#shadow)">
    <rect width="390" height="844" rx="34" fill="url(#paper)" stroke="#17201b" stroke-width="3"/><rect width="390" height="844" rx="34" fill="url(#dots)"/>
    <text x="20" y="41" fill="#17201b" font-size="17" font-weight="850">manimani</text><rect x="301" y="21" width="69" height="27" rx="14" fill="#e8efe9"/><circle cx="317" cy="34" r="5" fill="#23845b"/><text x="331" y="38" fill="#435149" font-size="9" font-weight="750">READY</text>
    <text x="20" y="83" fill="#637069" font-size="9" font-weight="800" letter-spacing="1.2">HOME · ENTRUST THE FLOW</text><text x="20" y="119" fill="#17201b" font-size="28" font-weight="900">流れを、あずける。</text><text x="20" y="151" fill="#17201b" font-size="28" font-weight="900">随に、ひとつ前へ。</text><text x="20" y="179" fill="#637069" font-size="11">kotoba-lang / shell · PRIVATE · write</text>
    <g class="mascot" transform="translate(42 205)" style="cursor:pointer"><circle cx="153" cy="100" r="139" fill="#ffd76a" opacity=".34"/><circle class="pulse" cx="153" cy="100" r="112" fill="#fffdf6" stroke="#17201b" stroke-width="3" stroke-dasharray="5 8"/><use href="#mascot" x="3" y="17" width="300" height="170"/><path d="M8 48 31 57M285 38l-22 15M300 130l-29-9" stroke="#ed6e5c" stroke-width="6" stroke-linecap="round"/></g>
    <text x="195" y="424" fill="#17201b" font-size="14" font-weight="850" text-anchor="middle">まにまに君は、ゆっくり回っています</text><text x="195" y="447" fill="#637069" font-size="10" text-anchor="middle">押すと少し加速 · 長押しや連打はsoft cap</text>
    <rect x="20" y="472" width="350" height="106" rx="22" fill="#fffdf6" stroke="#17201b" stroke-width="2"/><text x="37" y="497" fill="#637069" font-size="9" font-weight="800">NEXT STORY</text><text x="37" y="526" fill="#17201b" font-size="16" font-weight="850">#142 Homeの情報階層を整える</text><text x="37" y="549" fill="#637069" font-size="10">Design loop · agent: Codex · 5 acceptance checks</text><rect x="290" y="487" width="62" height="22" rx="11" fill="#eee6fa"/><text x="321" y="502" fill="#68459b" font-size="8" font-weight="800" text-anchor="middle">PRIVATE</text>
    <g transform="translate(20 592)"><rect width="109" height="72" rx="18" fill="#eaf8f2"/><text x="15" y="24" fill="#637069" font-size="8" font-weight="700">INBOX</text><text x="15" y="55" fill="#17201b" font-size="22" font-weight="850">5</text><rect x="121" width="109" height="72" rx="18" fill="#fff6db"/><text x="136" y="24" fill="#637069" font-size="8" font-weight="700">READY</text><text x="136" y="55" fill="#17201b" font-size="22" font-weight="850">1</text><rect x="242" width="108" height="72" rx="18" fill="#fdeae6"/><text x="257" y="24" fill="#637069" font-size="8" font-weight="700">BLOCKER</text><text x="257" y="55" fill="#c63c3c" font-size="22" font-weight="850">1</text></g>
    <rect x="20" y="682" width="350" height="50" rx="17" fill="url(#sun)" stroke="#17201b" stroke-width="2"/><text x="195" y="713" fill="#17201b" font-size="12" font-weight="900" text-anchor="middle">scopeを確認して、流れを預ける →</text>
    <use href="#nav" x="16" y="762" width="358" height="66"/><circle cx="61" cy="795" r="24" fill="#ffd76a"/><text x="61" y="800" fill="#17201b" font-size="9" font-weight="900" text-anchor="middle">HOME</text>
  </g>

  <!-- INBOX -->
  <g id="Inbox" transform="translate(440 40)" font-family="'Noto Sans JP',-apple-system,BlinkMacSystemFont,sans-serif" filter="url(#shadow)">
    <rect width="390" height="844" rx="34" fill="#f7f8f5" stroke="#17201b" stroke-width="3"/><text x="20" y="41" fill="#17201b" font-size="17" font-weight="850">Inbox</text><rect x="328" y="21" width="42" height="27" rx="14" fill="#ed6e5c"/><text x="349" y="39" fill="#fff" font-size="10" font-weight="850" text-anchor="middle">5</text>
    <text x="20" y="86" fill="#17201b" font-size="27" font-weight="900">あなたの判断を待つもの</text><text x="20" y="114" fill="#637069" font-size="11">通知ではなく、次へ進むためのdecision。</text>
    <rect x="20" y="139" width="350" height="168" rx="22" fill="#fff" stroke="#c63c3c" stroke-width="2"/><rect x="35" y="155" width="70" height="22" rx="11" fill="#fdeae6"/><text x="70" y="170" fill="#c63c3c" font-size="8" font-weight="850" text-anchor="middle">BLOCKER</text><text x="35" y="205" fill="#17201b" font-size="16" font-weight="850">visual-testの差分を承認しますか？</text><text x="35" y="229" fill="#637069" font-size="10">shell / PR #148 · screenshot differs 2.4%</text><text x="35" y="252" fill="#637069" font-size="10">保留するとDesign loopが停止します</text><rect x="35" y="267" width="105" height="27" rx="10" fill="#f7f8f5" stroke="#17201b"/><text x="87" y="285" fill="#17201b" font-size="9" font-weight="750" text-anchor="middle">差分を見る</text><rect x="249" y="267" width="103" height="27" rx="10" fill="#17201b"/><text x="300" y="285" fill="#fff" font-size="9" font-weight="750" text-anchor="middle">判断する →</text>
    <rect x="20" y="323" width="350" height="120" rx="22" fill="#fff" stroke="#d8ded9" stroke-width="2"/><rect x="35" y="340" width="83" height="22" rx="11" fill="#fff6db"/><text x="76" y="355" fill="#9b5d00" font-size="8" font-weight="850" text-anchor="middle">APPROVAL</text><text x="35" y="390" fill="#17201b" font-size="15" font-weight="850">Actionsを再実行</text><text x="35" y="414" fill="#637069" font-size="10">actor: you · workflow: visual-test.yml</text><text x="350" y="390" fill="#17201b" font-size="18" text-anchor="end">›</text>
    <rect x="20" y="459" width="350" height="104" rx="22" fill="#fff" stroke="#d8ded9" stroke-width="2"/><rect x="35" y="476" width="67" height="22" rx="11" fill="#eaf8f2"/><text x="68" y="491" fill="#23845b" font-size="8" font-weight="850" text-anchor="middle">QUESTION</text><text x="35" y="526" fill="#17201b" font-size="15" font-weight="850">Issue #142の完了条件</text><text x="35" y="548" fill="#637069" font-size="10">Codexから1つの確認 · 8分前</text>
    <rect x="20" y="584" width="350" height="102" rx="22" fill="#eef3ef"/><text x="36" y="611" fill="#637069" font-size="9" font-weight="800">DECISION LOAD</text><text x="36" y="643" fill="#17201b" font-size="20" font-weight="850">約 4分</text><text x="122" y="643" fill="#637069" font-size="10">3 decisions · risk順</text><text x="36" y="669" fill="#637069" font-size="9">緊急度ではなく、停止コスト×影響で並べる</text>
    <use href="#nav" x="16" y="762" width="358" height="66"/><circle cx="150" cy="795" r="24" fill="#65ccb2"/><text x="150" y="800" fill="#17201b" font-size="9" font-weight="900" text-anchor="middle">INBOX</text>
  </g>

  <!-- WALK -->
  <g id="Walk" transform="translate(850 40)" font-family="'Noto Sans JP',-apple-system,BlinkMacSystemFont,sans-serif" filter="url(#shadow)">
    <rect width="390" height="844" rx="34" fill="#f7f8f5" stroke="#17201b" stroke-width="3"/><text x="20" y="41" fill="#17201b" font-size="17" font-weight="850">Walk</text><text x="370" y="40" fill="#23845b" font-size="9" font-weight="800" text-anchor="end">DESIGN LOOP · RUNNING</text>
    <text x="20" y="82" fill="#637069" font-size="9" font-weight="800" letter-spacing="1.1">KOTOBA-LANG / SHELL / #142</text><text x="20" y="112" fill="#17201b" font-size="22" font-weight="900">螺旋を歩き、理解を深める</text><text x="20" y="138" fill="#637069" font-size="10">Observe → Frame → Change → Verify → Learn</text>
    <g transform="translate(15 154)"><path d="M180 118c-85 0-130-36-130-78 0-35 38-58 88-58 65 0 109 34 109 76 0 51-52 94-127 94-48 0-92-19-121-47" fill="none" stroke="#b7c3bb" stroke-width="4" stroke-dasharray="3 8"/><circle cx="50" cy="40" r="16" fill="#65ccb2" stroke="#17201b" stroke-width="2"/><text x="50" y="44" fill="#17201b" font-size="9" font-weight="850" text-anchor="middle">OBS</text><circle cx="138" cy="-18" r="16" fill="#65ccb2" stroke="#17201b" stroke-width="2"/><text x="138" y="-14" fill="#17201b" font-size="9" font-weight="850" text-anchor="middle">FRM</text><circle cx="247" cy="58" r="20" fill="#ffd76a" stroke="#17201b" stroke-width="3"/><text x="247" y="62" fill="#17201b" font-size="9" font-weight="900" text-anchor="middle">CHG</text><circle cx="120" cy="152" r="16" fill="#fff" stroke="#17201b" stroke-width="2"/><text x="120" y="156" fill="#637069" font-size="8" font-weight="850" text-anchor="middle">VRF</text><use class="mascot" href="#mascot" x="102" y="13" width="174" height="99"/></g>
    <rect x="20" y="329" width="350" height="108" rx="22" fill="#fdeae6" stroke="#c63c3c" stroke-width="2"/><circle cx="46" cy="358" r="14" fill="#c63c3c"/><text x="46" y="363" fill="#fff" font-size="12" font-weight="900" text-anchor="middle">!</text><text x="70" y="355" fill="#c63c3c" font-size="9" font-weight="850">BLOCKER · 18 MIN</text><text x="36" y="389" fill="#17201b" font-size="15" font-weight="850">visual-test failed</text><text x="36" y="412" fill="#637069" font-size="10">Owner: you · Release: screenshot approval</text><text x="348" y="389" fill="#17201b" font-size="18" text-anchor="end">›</text>
    <rect x="20" y="453" width="350" height="150" rx="22" fill="#fff" stroke="#d8ded9" stroke-width="2"/><text x="36" y="480" fill="#637069" font-size="9" font-weight="800">EVIDENCE PATH</text><path d="M49 511v66" stroke="#b7c3bb" stroke-width="3"/><circle cx="49" cy="513" r="8" fill="#23845b"/><text x="68" y="517" fill="#17201b" font-size="11" font-weight="750">Issue #142 · intent fixed</text><circle cx="49" cy="546" r="8" fill="#23845b"/><text x="68" y="550" fill="#17201b" font-size="11" font-weight="750">PR #148 · 3 commits</text><circle cx="49" cy="579" r="9" fill="#f2b84b"/><text x="68" y="583" fill="#17201b" font-size="11" font-weight="750">Actions 4/5 · waiting approval</text>
    <rect x="20" y="620" width="168" height="48" rx="16" fill="#fff" stroke="#17201b" stroke-width="2"/><text x="104" y="650" fill="#17201b" font-size="10" font-weight="800" text-anchor="middle">Chatで相談</text><rect x="202" y="620" width="168" height="48" rx="16" fill="#17201b"/><text x="286" y="650" fill="#fff" font-size="10" font-weight="800" text-anchor="middle">blockerを解く →</text><text x="20" y="702" fill="#637069" font-size="9">Pause · Redirect · Retry · Take over はいつでも選択可能</text>
    <use href="#nav" x="16" y="762" width="358" height="66"/><circle cx="240" cy="795" r="24" fill="#ed6e5c"/><text x="240" y="800" fill="#17201b" font-size="9" font-weight="900" text-anchor="middle">WALK</text>
  </g>

  <!-- CHAT -->
  <g id="Chat" transform="translate(1260 40)" font-family="'Noto Sans JP',-apple-system,BlinkMacSystemFont,sans-serif" filter="url(#shadow)">
    <rect width="390" height="844" rx="34" fill="#f7f8f5" stroke="#17201b" stroke-width="3"/><text x="20" y="41" fill="#435149" font-size="11" font-weight="750">‹ Home</text><text x="195" y="41" fill="#17201b" font-size="17" font-weight="850" text-anchor="middle">Chat</text><circle cx="352" cy="34" r="14" fill="#ffd76a" stroke="#17201b" stroke-width="2"/><text x="352" y="39" fill="#17201b" font-size="12" font-weight="900" text-anchor="middle">m</text>
    <g transform="translate(20 62)"><rect width="350" height="38" rx="13" fill="#eef3ef"/><text x="14" y="24" fill="#435149" font-size="9" font-weight="750">kotoba-lang / shell</text><rect x="242" y="8" width="94" height="22" rx="11" fill="#eee6fa"/><text x="289" y="23" fill="#68459b" font-size="8" font-weight="850" text-anchor="middle">PRIVATE · WRITE</text></g>
    <text x="20" y="134" fill="#637069" font-size="9">YOU · 10:42</text><rect x="74" y="146" width="296" height="70" rx="20" fill="#17201b"/><text x="91" y="173" fill="#fff" font-size="11">visual-testのblockerを調べて、</text><text x="91" y="193" fill="#fff" font-size="11">安全なら修正案を作って。</text>
    <circle cx="42" cy="249" r="18" fill="#ffd76a" stroke="#17201b" stroke-width="2"/><text x="42" y="254" fill="#17201b" font-size="12" font-weight="900" text-anchor="middle">m</text><text x="70" y="242" fill="#637069" font-size="9">MANIMANI · CODEX</text><rect x="20" y="261" width="350" height="116" rx="20" fill="#fff" stroke="#d8ded9" stroke-width="2"/><text x="36" y="289" fill="#17201b" font-size="11">差分はnavigationの高さ8pxです。</text><text x="36" y="311" fill="#17201b" font-size="11">機能差はなく、HIGの44px targetも維持します。</text><text x="36" y="341" fill="#637069" font-size="9">根拠: visual diff · CSS lines 412–428 · PR #148</text><text x="36" y="361" fill="#2677d8" font-size="9" font-weight="750">証拠を3件表示 →</text>
    <rect x="20" y="394" width="350" height="205" rx="22" fill="#fff6db" stroke="#9b5d00" stroke-width="2"/><text x="36" y="421" fill="#9b5d00" font-size="9" font-weight="900">TOOL PREVIEW · EXTERNAL WRITE</text><text x="36" y="452" fill="#17201b" font-size="15" font-weight="850">PR #148へ修正commitを追加</text><text x="36" y="478" fill="#637069" font-size="10">Actor</text><text x="117" y="478" fill="#17201b" font-size="10" font-weight="750">Codex via you</text><text x="36" y="501" fill="#637069" font-size="10">Target</text><text x="117" y="501" fill="#17201b" font-size="10" font-weight="750">kotoba-lang/shell · ui-home</text><text x="36" y="524" fill="#637069" font-size="10">Change</text><text x="117" y="524" fill="#17201b" font-size="10" font-weight="750">1 file · +4 −4</text><text x="36" y="547" fill="#637069" font-size="10">After</text><text x="117" y="547" fill="#17201b" font-size="10" font-weight="750">visual-testを再実行</text><rect x="36" y="560" width="116" height="27" rx="10" fill="#fff" stroke="#17201b"/><text x="94" y="578" fill="#17201b" font-size="9" font-weight="750" text-anchor="middle">diffを確認</text><rect x="236" y="560" width="116" height="27" rx="10" fill="#17201b"/><text x="294" y="578" fill="#fff" font-size="9" font-weight="750" text-anchor="middle">実行を承認 →</text>
    <text x="20" y="626" fill="#637069" font-size="9">会話は提案。外部変更はpreviewとpolicyを通して実行。</text>
    <rect x="16" y="650" width="358" height="128" rx="24" fill="#fff" stroke="#17201b" stroke-width="2"/><text x="34" y="681" fill="#637069" font-size="10">メッセージを入力…</text><text x="34" y="738" fill="#637069" font-size="9">＋ Context</text><rect x="318" y="724" width="40" height="40" rx="15" fill="#65ccb2"/><text x="338" y="750" fill="#17201b" font-size="17" font-weight="900" text-anchor="middle">↑</text>
    <text x="195" y="802" fill="#637069" font-size="8" font-weight="700" text-anchor="middle">TAB BAR HIDDEN WHILE CHATTING</text><path d="M163 816h64" stroke="#17201b" stroke-width="5" stroke-linecap="round" opacity=".8"/>
  </g>
</svg>
