<svg xmlns="http://www.w3.org/2000/svg" width="1270" height="924" viewBox="0 0 1270 924">
  <defs>
    <filter id="s"><feDropShadow dx="0" dy="12" stdDeviation="14" flood-color="#17201b" flood-opacity=".18"/></filter>
    <symbol id="g" viewBox="0 0 24 24"><circle cx="12" cy="12" r="10.5" fill="#40345f" stroke="#17201b" stroke-width="1.2"/><path d="M12 2.5v19M2.5 12h19M5 5l14 14M19 5 5 19" stroke="#ffd76a" stroke-width="1"/><g stroke="#17201b" stroke-width=".8" stroke-linejoin="round"><path d="M6.5 10q-2-3 1-4l2 2q2.5-1.5 5 0l2-2q3 1 1 4l1 7q0 5-6.5 5T5.5 17z" fill="#ffd76a"/><circle cx="9.5" cy="12" r=".8" fill="#17201b"/><circle cx="14.5" cy="12" r=".8" fill="#17201b"/><ellipse cx="12" cy="16.3" rx="3.7" ry="2.7" fill="#ffbeaa"/><circle cx="10.8" cy="16.2" r=".4"/><circle cx="13.2" cy="16.2" r=".4"/></g></symbol>
    <style>[fill="#c63c3c" i]{fill:#b83232}[stroke="#c63c3c" i]{stroke:#b83232}.active{transform-box:fill-box;transform-origin:center;animation:p .9s ease-in-out infinite alternate}@keyframes p{to{transform:scale(1.12)}}@media(prefers-reduced-motion:reduce){.active{animation:none}}</style>
  </defs>
  <rect width="1270" height="924" fill="#17201b"/><text x="30" y="25" fill="#c9d0cb" font-family="'Noto Sans JP',sans-serif" font-size="10" font-weight="800" letter-spacing="1.3">MANIMANI LOOM / ADAPTIVE DENSITY · 30 AGENTS</text>

  <!-- MOBILE CLUSTER VIEW -->
  <g transform="translate(30 40)" font-family="'Noto Sans JP',-apple-system,sans-serif" filter="url(#s)">
    <rect width="390" height="844" rx="34" fill="#f7f8f5" stroke="#17201b" stroke-width="3"/><text x="20" y="41" fill="#435149" font-size="11">‹ Chat</text><text x="195" y="41" fill="#17201b" font-size="17" font-weight="850" text-anchor="middle">Loom</text><text x="370" y="40" fill="#23845b" font-size="9" font-weight="850" text-anchor="end">30 AGENTS</text>
    <text x="20" y="83" fill="#17201b" font-size="25" font-weight="900">30の流れを、ひと目で。</text><text x="20" y="110" fill="#637069" font-size="10">5体をひと束に。必要な束だけほどく。</text>
    <g transform="translate(20 132)"><rect width="350" height="72" rx="19" fill="#fdeae6" stroke="#b83232" stroke-width="2"/><text x="16" y="25" fill="#b83232" font-size="8" font-weight="900">1 BLOCKED · CRITICAL</text><text x="16" y="51" fill="#17201b" font-size="13" font-weight="850">Release / shell · visual approval</text><use class="active" href="#g" x="301" y="18" width="36" height="36"/></g>
    <g transform="translate(20 220)"><rect width="350" height="112" rx="20" fill="#fff" stroke="#d8ded9" stroke-width="2"/><text x="16" y="25" fill="#17201b" font-size="12" font-weight="850">Mail observation</text><text x="333" y="25" fill="#23845b" font-size="8" text-anchor="end">5 RUN</text><use href="#g" x="16" y="42" width="38" height="38"/><use href="#g" x="53" y="42" width="38" height="38"/><use href="#g" x="90" y="42" width="38" height="38"/><use href="#g" x="127" y="42" width="38" height="38"/><use href="#g" x="164" y="42" width="38" height="38"/><text x="222" y="61" fill="#17201b" font-size="10" font-weight="750">18 fetched</text><text x="222" y="82" fill="#637069" font-size="8">3 Issue proposals</text><text x="333" y="99" fill="#2677d8" font-size="8" text-anchor="end">展開 ›</text></g>
    <g transform="translate(20 346)"><rect width="350" height="112" rx="20" fill="#fff" stroke="#d8ded9" stroke-width="2"/><text x="16" y="25" fill="#17201b" font-size="12" font-weight="850">Design &amp; BMC</text><text x="333" y="25" fill="#23845b" font-size="8" text-anchor="end">8 RUN · 2 WAIT</text><use href="#g" x="16" y="42" width="38" height="38"/><use href="#g" x="53" y="42" width="38" height="38"/><use href="#g" x="90" y="42" width="38" height="38"/><use href="#g" x="127" y="42" width="38" height="38"/><use href="#g" x="164" y="42" width="38" height="38"/><circle cx="229" cy="61" r="19" fill="#eef3ef"/><text x="229" y="65" fill="#637069" font-size="8" font-weight="850" text-anchor="middle">+5</text><text x="333" y="99" fill="#2677d8" font-size="8" text-anchor="end">2 clusters ›</text></g>
    <g transform="translate(20 472)"><rect width="350" height="112" rx="20" fill="#fff" stroke="#d8ded9" stroke-width="2"/><text x="16" y="25" fill="#17201b" font-size="12" font-weight="850">Code</text><text x="333" y="25" fill="#23845b" font-size="8" text-anchor="end">7 RUN · 1 QUEUE</text><use href="#g" x="16" y="42" width="38" height="38"/><use href="#g" x="53" y="42" width="38" height="38"/><use href="#g" x="90" y="42" width="38" height="38"/><use href="#g" x="127" y="42" width="38" height="38"/><use href="#g" x="164" y="42" width="38" height="38"/><circle cx="229" cy="61" r="19" fill="#eef3ef"/><text x="229" y="65" fill="#637069" font-size="8" font-weight="850" text-anchor="middle">+3</text><text x="333" y="99" fill="#2677d8" font-size="8" text-anchor="end">3 repos ›</text></g>
    <g transform="translate(20 598)"><rect width="350" height="112" rx="20" fill="#fff" stroke="#d8ded9" stroke-width="2"/><text x="16" y="25" fill="#17201b" font-size="12" font-weight="850">CI &amp; Review</text><text x="333" y="25" fill="#9b5d00" font-size="8" text-anchor="end">4 RUN · 3 WAIT</text><use href="#g" x="16" y="42" width="38" height="38"/><use href="#g" x="53" y="42" width="38" height="38"/><use href="#g" x="90" y="42" width="38" height="38"/><use href="#g" x="127" y="42" width="38" height="38"/><circle cx="192" cy="61" r="19" fill="#eef3ef"/><text x="192" y="65" fill="#637069" font-size="8" font-weight="850" text-anchor="middle">+3</text><text x="333" y="99" fill="#2677d8" font-size="8" text-anchor="end">receipts ›</text></g>
    <rect x="20" y="731" width="350" height="48" rx="16" fill="#17201b"/><text x="195" y="761" fill="#fff" font-size="10" font-weight="850" text-anchor="middle">trail gridで30体を見る →</text><text x="195" y="814" fill="#637069" font-size="8" text-anchor="middle">animation 4 / glyphs 30</text>
  </g>

  <!-- DESKTOP TRAIL GRID -->
  <g transform="translate(440 40)" font-family="'Noto Sans JP',-apple-system,sans-serif" filter="url(#s)">
    <rect width="800" height="844" rx="30" fill="#f7f8f5" stroke="#17201b" stroke-width="3"/><text x="24" y="42" fill="#17201b" font-size="18" font-weight="850">Manimani Loom</text><text x="776" y="42" fill="#23845b" font-size="9" font-weight="850" text-anchor="end">30 AGENTS · 8 ANIMATED</text>
    <text x="24" y="84" fill="#17201b" font-size="28" font-weight="900">Trail grid</text><text x="24" y="110" fill="#637069" font-size="10">32px row · blocker / critical path / approvalを固定表示</text>
    <rect x="24" y="132" width="752" height="44" rx="14" fill="#eef3ef"/><text x="42" y="159" fill="#435149" font-size="9">Filter: All systems</text><text x="280" y="159" fill="#435149" font-size="9">Group: Repo</text><text x="516" y="159" fill="#435149" font-size="9">Order: Critical first</text><text x="752" y="159" fill="#2677d8" font-size="9" text-anchor="end">Topology map</text>
    <g transform="translate(24 194)" font-size="9"><rect width="752" height="34" rx="8" fill="#fdeae6"/><text x="12" y="22" fill="#b83232" font-weight="900">!</text><use class="active" href="#g" x="30" y="5" width="24" height="24"/><text x="64" y="22" fill="#17201b" font-weight="850">release-01</text><text x="180" y="22" fill="#637069">shell</text><text x="314" y="22" fill="#b83232">BLOCKED</text><text x="432" y="22" fill="#637069">visual approval</text><text x="628" y="22" fill="#637069">21m</text><text x="730" y="22" fill="#17201b" text-anchor="end">›</text>
      <g id="rows" transform="translate(0 42)">
        <rect width="752" height="32" rx="8" fill="#fff"/><use href="#g" x="30" y="4" width="24" height="24"/><text x="64" y="21" fill="#17201b">mail-01</text><text x="180" y="21" fill="#637069">inbox</text><text x="314" y="21" fill="#23845b">RUNNING</text><text x="432" y="21" fill="#637069">link context 3/5</text><text x="628" y="21" fill="#637069">1m</text>
        <g transform="translate(0 36)"><rect width="752" height="32" rx="8" fill="#fff"/><use href="#g" x="30" y="4" width="24" height="24"/><text x="64" y="21" fill="#17201b">mail-02</text><text x="180" y="21" fill="#637069">sales</text><text x="314" y="21" fill="#23845b">RUNNING</text><text x="432" y="21" fill="#637069">classify 8/18</text><text x="628" y="21" fill="#637069">2m</text></g>
        <g transform="translate(0 72)"><rect width="752" height="32" rx="8" fill="#fff"/><use href="#g" x="30" y="4" width="24" height="24"/><text x="64" y="21" fill="#17201b">design-03</text><text x="180" y="21" fill="#637069">manimani</text><text x="314" y="21" fill="#23845b">RUNNING</text><text x="432" y="21" fill="#637069">prototype 2/4</text><text x="628" y="21" fill="#637069">4m</text></g>
        <g transform="translate(0 108)"><rect width="752" height="32" rx="8" fill="#fff"/><use href="#g" x="30" y="4" width="24" height="24"/><text x="64" y="21" fill="#17201b">bmc-01</text><text x="180" y="21" fill="#637069">bonsai</text><text x="314" y="21" fill="#9b5d00">WAIT</text><text x="432" y="21" fill="#637069">depends: evidence-04</text><text x="628" y="21" fill="#637069">6m</text></g>
        <g transform="translate(0 144)"><rect width="752" height="32" rx="8" fill="#fff"/><use href="#g" x="30" y="4" width="24" height="24"/><text x="64" y="21" fill="#17201b">code-07</text><text x="180" y="21" fill="#637069">shell</text><text x="314" y="21" fill="#23845b">RUNNING</text><text x="432" y="21" fill="#637069">test 4/5</text><text x="628" y="21" fill="#637069">7m</text></g>
        <g transform="translate(0 180)"><rect width="752" height="32" rx="8" fill="#fff"/><use href="#g" x="30" y="4" width="24" height="24"/><text x="64" y="21" fill="#17201b">code-08</text><text x="180" y="21" fill="#637069">ui</text><text x="314" y="21" fill="#23845b">RUNNING</text><text x="432" y="21" fill="#637069">change 1/5</text><text x="628" y="21" fill="#637069">8m</text></g>
        <g transform="translate(0 216)"><rect width="752" height="32" rx="8" fill="#fff"/><use href="#g" x="30" y="4" width="24" height="24"/><text x="64" y="21" fill="#17201b">ci-02</text><text x="180" y="21" fill="#637069">shell</text><text x="314" y="21" fill="#68459b">APPROVAL</text><text x="432" y="21" fill="#637069">dispatch actions</text><text x="628" y="21" fill="#637069">9m</text></g>
        <g transform="translate(0 252)"><rect width="752" height="32" rx="8" fill="#fff"/><use href="#g" x="30" y="4" width="24" height="24"/><text x="64" y="21" fill="#17201b">review-04</text><text x="180" y="21" fill="#637069">motion</text><text x="314" y="21" fill="#23845b">RUNNING</text><text x="432" y="21" fill="#637069">evidence 3/6</text><text x="628" y="21" fill="#637069">10m</text></g>
        <g transform="translate(0 288)"><rect width="752" height="32" rx="8" fill="#fff"/><use href="#g" x="30" y="4" width="24" height="24"/><text x="64" y="21" fill="#17201b">mail-03</text><text x="180" y="21" fill="#637069">support</text><text x="314" y="21" fill="#23845b">RUNNING</text><text x="432" y="21" fill="#637069">deduplicate 4/7</text><text x="628" y="21" fill="#637069">12m</text></g>
        <g transform="translate(0 324)"><rect width="752" height="32" rx="8" fill="#fff"/><circle cx="42" cy="16" r="10" fill="#eef3ef"/><text x="42" y="20" fill="#637069" font-size="7" text-anchor="middle">+20</text><text x="64" y="21" fill="#637069">さらに20 agent · scrollでvirtualize</text></g>
      </g>
    </g>
    <rect x="24" y="658" width="478" height="143" rx="20" fill="#fff" stroke="#d8ded9" stroke-width="2"/><text x="42" y="687" fill="#637069" font-size="9" font-weight="850">SELECTED · CODE-07</text><text x="42" y="716" fill="#17201b" font-size="15" font-weight="900">shell / PR #148</text><text x="42" y="742" fill="#637069" font-size="9">Issue → Change → Test 4/5 → PR → Receipt</text><rect x="42" y="760" width="128" height="26" rx="9" fill="#17201b"/><text x="106" y="778" fill="#fff" font-size="8" font-weight="800" text-anchor="middle">focused agentを開く</text><rect x="518" y="658" width="258" height="143" rx="20" fill="#eef3ef"/><text x="536" y="687" fill="#637069" font-size="9" font-weight="850">ANIMATION BUDGET</text><text x="536" y="721" fill="#17201b" font-size="20" font-weight="900">8 / 30</text><text x="536" y="747" fill="#637069" font-size="9">blocked · critical · selected</text><text x="536" y="771" fill="#637069" font-size="9">others: static glyph</text>
  </g>
</svg>
