<svg xmlns="http://www.w3.org/2000/svg" width="1270" height="924" viewBox="0 0 1270 924">
  <defs>
    <filter id="s"><feDropShadow dx="0" dy="12" stdDeviation="14" flood-color="#17201b" flood-opacity=".18"/></filter>
    <linearGradient id="p" x2="0" y2="1"><stop stop-color="#fffaf0"/><stop offset="1" stop-color="#f7f0db"/></linearGradient>
    <symbol id="mini" viewBox="0 0 210 160"><circle cx="105" cy="78" r="69" fill="#fffdf6" stroke="#17201b" stroke-width="5"/><g class="w"><circle cx="105" cy="78" r="60" fill="#40345f" stroke="#17201b" stroke-width="5"/><path d="M105 20v116M47 78h116M64 37l82 82M146 37l-82 82" stroke="#ffd76a" stroke-width="6"/><circle cx="105" cy="78" r="9" fill="#fff4cf"/></g><path d="M55 113q50 23 100 0" fill="none" stroke="#17201b" stroke-width="6"/><g class="runner" stroke="#17201b" stroke-width="4" stroke-linecap="round" stroke-linejoin="round"><ellipse cx="99" cy="98" rx="39" ry="23" fill="#ffd76a"/><path d="M126 87q18-12 25 5l-2 21q-2 14-19 11l-12-9z" fill="#ffd76a"/><path d="m134 84 2-12 8 11m3 2 7-8-2 14" fill="#ffd76a"/><ellipse cx="139" cy="108" rx="10" ry="8" fill="#ffbeaa"/><circle cx="137" cy="94" r="2.5"/><path d="M77 115l-14 14m31-12 12 12m12-13-13 14m30-17 13 12" fill="none" stroke-width="5"/><path d="M61 92Q48 81 44 93" fill="none"/></g></symbol>
    <style>[fill="#2677d8" i]{fill:#246fc7}[stroke="#2677d8" i]{stroke:#246fc7}[fill="#c63c3c" i]{fill:#b83232}[stroke="#c63c3c" i]{stroke:#b83232}.w{transform-box:fill-box;transform-origin:center;animation:r 8s linear infinite}.runner{transform-box:fill-box;transform-origin:center bottom;animation:j .42s ease-in-out infinite alternate}@keyframes r{to{transform:rotate(360deg)}}@keyframes j{to{transform:translateY(-3px) rotate(-1.5deg)}}@media(prefers-reduced-motion:reduce){.w,.runner{animation:none}}</style>
  </defs>
  <rect width="1270" height="924" fill="#17201b"/><text x="30" y="25" fill="#c9d0cb" font-family="-apple-system,sans-serif" font-size="10" font-weight="800" letter-spacing="1.3">MANIMANI / APPLICATION SHELL</text>

  <g id="Launch" transform="translate(30 40)" font-family="'Noto Sans JP',-apple-system,BlinkMacSystemFont,sans-serif" filter="url(#s)">
    <rect width="390" height="844" rx="34" fill="url(#p)" stroke="#17201b" stroke-width="3"/><text x="195" y="80" fill="#637069" font-size="10" font-weight="800" letter-spacing="1.3" text-anchor="middle">LAUNCH · RESTORE THE FLOW</text>
    <circle cx="195" cy="278" r="132" fill="#ffd76a" opacity=".35"/><use href="#mini" x="90" y="218" width="210" height="120"/><text x="195" y="391" fill="#17201b" font-size="28" font-weight="900" text-anchor="middle">流れを、迎えにいく。</text><text x="195" y="423" fill="#637069" font-size="11" text-anchor="middle">前回のWalkと安全な接続を復元しています</text>
    <g transform="translate(42 478)"><path d="M14 10v126" stroke="#c9d0cb" stroke-width="3"/><circle cx="14" cy="10" r="10" fill="#23845b"/><text x="38" y="15" fill="#17201b" font-size="12" font-weight="800">Local inventory</text><text x="290" y="15" fill="#23845b" font-size="9" text-anchor="end">3,457 READY</text><circle cx="14" cy="73" r="10" fill="#f2b84b"/><text x="38" y="78" fill="#17201b" font-size="12" font-weight="800">GitHub session</text><text x="290" y="78" fill="#9b5d00" font-size="9" text-anchor="end">CONNECTING</text><circle cx="14" cy="136" r="10" fill="#fff" stroke="#637069" stroke-width="2"/><text x="38" y="141" fill="#637069" font-size="12" font-weight="800">Agent harness</text><text x="290" y="141" fill="#637069" font-size="9" text-anchor="end">WAITING</text></g>
    <rect x="34" y="675" width="322" height="72" rx="18" fill="#fff" stroke="#d8ded9"/><text x="50" y="703" fill="#17201b" font-size="11" font-weight="800">接続に時間がかかる場合</text><text x="50" y="727" fill="#2677d8" font-size="9">ローカルで続ける</text><text x="326" y="727" fill="#637069" font-size="9" text-anchor="end">診断を見る →</text><text x="195" y="808" fill="#637069" font-size="9" text-anchor="middle">v0.1 · reduced motion supported</text>
  </g>

  <g id="Profile" transform="translate(440 40)" font-family="'Noto Sans JP',-apple-system,BlinkMacSystemFont,sans-serif" filter="url(#s)">
    <rect width="390" height="844" rx="34" fill="#f7f8f5" stroke="#17201b" stroke-width="3"/><text x="20" y="42" fill="#435149" font-size="11">‹ Home</text><text x="195" y="42" fill="#17201b" font-size="17" font-weight="850" text-anchor="middle">Profile</text>
    <circle cx="70" cy="112" r="38" fill="#ffd76a" stroke="#17201b" stroke-width="3"/><text x="70" y="120" fill="#17201b" font-size="22" font-weight="900" text-anchor="middle">JK</text><text x="126" y="102" fill="#17201b" font-size="19" font-weight="900">Jun Kawasaki</text><text x="126" y="127" fill="#637069" font-size="10">@com-junkawasaki · GitHub connected</text><rect x="126" y="141" width="83" height="23" rx="11" fill="#eaf8f2"/><text x="167" y="157" fill="#23845b" font-size="8" font-weight="800" text-anchor="middle">VERIFIED ACTOR</text>
    <text x="20" y="211" fill="#637069" font-size="9" font-weight="800">ACTIVE CONTEXT</text><rect x="20" y="227" width="350" height="88" rx="20" fill="#fff" stroke="#d8ded9" stroke-width="2"/><text x="36" y="255" fill="#17201b" font-size="14" font-weight="850">kotoba-lang</text><text x="36" y="278" fill="#637069" font-size="10">GitHub App · selected repositories</text><rect x="276" y="244" width="76" height="23" rx="11" fill="#eee6fa"/><text x="314" y="260" fill="#68459b" font-size="8" font-weight="800" text-anchor="middle">WRITE</text><text x="36" y="299" fill="#2677d8" font-size="9">権限の内訳を見る →</text>
    <text x="20" y="358" fill="#637069" font-size="9" font-weight="800">IDENTITIES</text><rect x="20" y="374" width="350" height="147" rx="20" fill="#fff" stroke="#d8ded9" stroke-width="2"/><text x="36" y="405" fill="#637069" font-size="10">Human actor</text><text x="334" y="405" fill="#17201b" font-size="10" font-weight="800" text-anchor="end">com-junkawasaki</text><path d="M36 424h298" stroke="#e5e9e6"/><text x="36" y="453" fill="#637069" font-size="10">Agent</text><text x="334" y="453" fill="#17201b" font-size="10" font-weight="800" text-anchor="end">Codex CLI · local</text><path d="M36 472h298" stroke="#e5e9e6"/><text x="36" y="501" fill="#637069" font-size="10">Receipt signer</text><text x="334" y="501" fill="#17201b" font-size="10" font-weight="800" text-anchor="end">device key · healthy</text>
    <text x="20" y="566" fill="#637069" font-size="9" font-weight="800">USAGE · JUL 2026</text><rect x="20" y="582" width="350" height="85" rx="20" fill="#fff6db"/><text x="36" y="613" fill="#17201b" font-size="17" font-weight="900">38 verified receipts</text><text x="36" y="640" fill="#637069" font-size="9">token量ではなく、検証済み価値を表示</text>
    <rect x="20" y="692" width="350" height="48" rx="16" fill="#fff" stroke="#17201b"/><text x="195" y="722" fill="#17201b" font-size="10" font-weight="800" text-anchor="middle">Data export</text><text x="195" y="778" fill="#c63c3c" font-size="10" font-weight="800" text-anchor="middle">Sign out / Revoke credentials</text>
  </g>

  <g id="Settings" transform="translate(850 40)" font-family="'Noto Sans JP',-apple-system,BlinkMacSystemFont,sans-serif" filter="url(#s)">
    <rect width="390" height="844" rx="34" fill="#f7f8f5" stroke="#17201b" stroke-width="3"/><text x="20" y="42" fill="#435149" font-size="11">‹ Profile</text><text x="195" y="42" fill="#17201b" font-size="17" font-weight="850" text-anchor="middle">Settings</text><text x="20" y="87" fill="#17201b" font-size="27" font-weight="900">体験と権限を整える</text><text x="20" y="114" fill="#637069" font-size="10">変更の影響と適用時点を明示します。</text>
    <g transform="translate(20 142)"><text x="0" y="0" fill="#637069" font-size="9" font-weight="800">EXPERIENCE</text><rect y="16" width="350" height="138" rx="20" fill="#fff" stroke="#d8ded9" stroke-width="2"/><text x="16" y="48" fill="#17201b" font-size="11" font-weight="800">Motion</text><text x="316" y="48" fill="#23845b" font-size="9" text-anchor="end">System</text><rect x="317" y="32" width="20" height="20" rx="10" fill="#65ccb2"/><text x="16" y="86" fill="#17201b" font-size="11" font-weight="800">Sound &amp; haptics</text><text x="316" y="86" fill="#637069" font-size="9" text-anchor="end">Subtle</text><path d="M16 105h318" stroke="#e5e9e6"/><text x="16" y="132" fill="#17201b" font-size="11" font-weight="800">Celebration density</text><text x="316" y="132" fill="#637069" font-size="9" text-anchor="end">Meaningful only</text></g>
    <g transform="translate(20 325)"><text fill="#637069" font-size="9" font-weight="800">AGENTS</text><rect y="16" width="350" height="112" rx="20" fill="#fff" stroke="#d8ded9" stroke-width="2"/><text x="16" y="48" fill="#17201b" font-size="11" font-weight="800">Codex CLI</text><text x="316" y="48" fill="#23845b" font-size="9" text-anchor="end">Connected</text><path d="M16 66h318" stroke="#e5e9e6"/><text x="16" y="94" fill="#17201b" font-size="11" font-weight="800">Approval policy</text><text x="316" y="94" fill="#9b5d00" font-size="9" text-anchor="end">External writes ask ›</text></g>
    <g transform="translate(20 482)"><text fill="#637069" font-size="9" font-weight="800">GITHUB</text><rect y="16" width="350" height="112" rx="20" fill="#fff" stroke="#d8ded9" stroke-width="2"/><text x="16" y="48" fill="#17201b" font-size="11" font-weight="800">Installations</text><text x="316" y="48" fill="#637069" font-size="9" text-anchor="end">2 orgs ›</text><path d="M16 66h318" stroke="#e5e9e6"/><text x="16" y="94" fill="#17201b" font-size="11" font-weight="800">Receipt policy</text><text x="316" y="94" fill="#23845b" font-size="9" text-anchor="end">Verified only ›</text></g>
    <g transform="translate(20 639)"><text fill="#637069" font-size="9" font-weight="800">ACCESSIBILITY &amp; PRIVACY</text><rect y="16" width="350" height="125" rx="20" fill="#fff" stroke="#d8ded9" stroke-width="2"/><text x="16" y="48" fill="#17201b" font-size="11" font-weight="800">Reduce motion</text><text x="316" y="48" fill="#637069" font-size="9" text-anchor="end">Follow system</text><path d="M16 66h318" stroke="#e5e9e6"/><text x="16" y="94" fill="#17201b" font-size="11" font-weight="800">Telemetry</text><text x="316" y="94" fill="#637069" font-size="9" text-anchor="end">Local metrics only ›</text><text x="16" y="119" fill="#637069" font-size="8">次のrunから適用 · current runは変更しません</text></g>
  </g>
</svg>
