<svg xmlns="http://www.w3.org/2000/svg" width="1680" height="924" viewBox="0 0 1680 924">
  <defs>
    <filter id="s"><feDropShadow dx="0" dy="12" stdDeviation="14" flood-color="#17201b" flood-opacity=".18"/></filter>
    <linearGradient id="sun" x2="1" y2="1"><stop stop-color="#ffd76a"/><stop offset="1" stop-color="#f2b84b"/></linearGradient>
    <symbol id="runner" viewBox="0 0 64 64"><circle cx="32" cy="32" r="28" fill="#40345f" stroke="#17201b" stroke-width="3"/><path d="M32 5v54M5 32h54M12 12l40 40M52 12 12 52" stroke="#ffd76a" stroke-width="2.5"/><g class="cow" stroke="#17201b" stroke-width="2" stroke-linecap="round" stroke-linejoin="round"><path d="M18 29q-5-8 3-10l5 5q6-4 12 0l5-5q8 2 3 10l2 18q1 11-16 11T16 47z" fill="#ffd76a"/><path d="m23 23-2-7 7 5m13 2 2-7-7 5" fill="#ffd76a"/><circle cx="26" cy="34" r="2" fill="#17201b"/><circle cx="38" cy="34" r="2" fill="#17201b"/><ellipse cx="32" cy="45" rx="10" ry="7" fill="#ffbeaa"/><circle cx="29" cy="45" r="1" fill="#17201b"/><circle cx="35" cy="45" r="1" fill="#17201b"/><path d="M29 50q3 3 6 0" fill="none"/></g></symbol>
    <style>[fill="#2677d8" i]{fill:#246fc7}[stroke="#2677d8" i]{stroke:#246fc7}[fill="#c63c3c" i]{fill:#b83232}[stroke="#c63c3c" i]{stroke:#b83232}.cow{transform-box:fill-box;transform-origin:center bottom;animation:j .42s ease-in-out infinite alternate}@keyframes j{to{transform:translateY(-2px)}}@media(prefers-reduced-motion:reduce){.cow{animation:none}}</style>
  </defs>
  <rect width="1680" height="924" fill="#17201b"/><text x="30" y="25" fill="#c9d0cb" font-family="'Noto Sans JP',sans-serif" font-size="10" font-weight="800" letter-spacing="1.3">MANIMANI LOOM / PARALLEL AGENT EXPERIENCE</text><text x="1650" y="25" fill="#c9d0cb" font-family="'Noto Sans JP',sans-serif" font-size="10" font-weight="800" text-anchor="end">PLAN ← RECEIPT · EXECUTE → RECEIPT</text>

  <!-- CHAT SUMMARY -->
  <g id="Chat-summary" transform="translate(30 40)" font-family="'Noto Sans JP',-apple-system,sans-serif" filter="url(#s)">
    <rect width="390" height="844" rx="34" fill="#f7f8f5" stroke="#17201b" stroke-width="3"/><text x="20" y="41" fill="#435149" font-size="11">‹ Home</text><text x="195" y="41" fill="#17201b" font-size="17" font-weight="850" text-anchor="middle">Chat</text><circle cx="352" cy="34" r="14" fill="#ffd76a" stroke="#17201b" stroke-width="2"/><text x="352" y="39" fill="#17201b" font-size="11" font-weight="900" text-anchor="middle">m</text>
    <rect x="20" y="62" width="350" height="38" rx="13" fill="#eef3ef"/><text x="34" y="86" fill="#435149" font-size="9" font-weight="750">kotoba-lang / 18 repos</text><text x="350" y="86" fill="#68459b" font-size="8" font-weight="800" text-anchor="end">MIXED ACCESS</text>
    <text x="20" y="134" fill="#637069" font-size="9">YOU · 10:42</text><rect x="72" y="146" width="298" height="67" rx="20" fill="#17201b"/><text x="91" y="174" fill="#fff" font-size="11">メールとGitHubを見て、今日進める</text><text x="91" y="194" fill="#fff" font-size="11">loopを並列で回して。</text>
    <circle cx="42" cy="247" r="18" fill="#ffd76a" stroke="#17201b" stroke-width="2"/><text x="42" y="252" fill="#17201b" font-size="11" font-weight="900" text-anchor="middle">m</text><text x="70" y="241" fill="#637069" font-size="9">ORCHESTRATOR MANIMANI</text><rect x="20" y="259" width="350" height="102" rx="20" fill="#fff" stroke="#d8ded9" stroke-width="2"/><text x="36" y="288" fill="#17201b" font-size="11">16のloopを編成しました。</text><text x="36" y="311" fill="#17201b" font-size="11">メールからIssue候補3件、判断待ち1件です。</text><text x="36" y="339" fill="#2677d8" font-size="9" font-weight="750">編成と根拠を見る →</text>
    <rect x="20" y="380" width="350" height="168" rx="22" fill="#fff" stroke="#17201b" stroke-width="2"/><text x="36" y="407" fill="#637069" font-size="9" font-weight="850">RUNNING LOOPS</text><g transform="translate(36 425)"><circle cx="27" cy="30" r="27" fill="#eaf8f2"/><use href="#runner" width="54" height="54"/><text x="72" y="20" fill="#17201b" font-size="17" font-weight="900">12 running</text><text x="72" y="42" fill="#637069" font-size="9">Mail 3 · Design 3 · Code 4 · CI 2</text><circle cx="9" cy="82" r="6" fill="#f2b84b"/><text x="24" y="86" fill="#17201b" font-size="10">3 waiting</text><circle cx="113" cy="82" r="6" fill="#c63c3c"/><text x="128" y="86" fill="#17201b" font-size="10">1 blocked</text><text x="314" y="86" fill="#2677d8" font-size="9" font-weight="750" text-anchor="end">Loomを開く ›</text></g>
    <rect x="20" y="566" width="350" height="91" rx="20" fill="#fdeae6" stroke="#c63c3c"/><text x="36" y="594" fill="#c63c3c" font-size="9" font-weight="850">NEEDS YOU · PRIVATE MAIL</text><text x="36" y="622" fill="#17201b" font-size="13" font-weight="850">Issue化する範囲を確認</text><text x="340" y="622" fill="#17201b" font-size="18" text-anchor="end">›</text><text x="36" y="643" fill="#637069" font-size="9">本文はlocal · GitHubにはredacted summary</text>
    <rect x="16" y="681" width="358" height="98" rx="24" fill="#fff" stroke="#17201b" stroke-width="2"/><text x="34" y="713" fill="#637069" font-size="10">Orchestratorへメッセージ…</text><text x="34" y="756" fill="#637069" font-size="9">＋ Context</text><rect x="318" y="738" width="40" height="40" rx="15" fill="#65ccb2"/><text x="338" y="764" fill="#17201b" font-size="17" font-weight="900" text-anchor="middle">↑</text><text x="195" y="813" fill="#637069" font-size="8" text-anchor="middle">TAB BAR HIDDEN WHILE CHATTING</text>
  </g>

  <!-- EXPANDED LOOM -->
  <g id="Expanded-loom" transform="translate(440 40)" font-family="'Noto Sans JP',-apple-system,sans-serif" filter="url(#s)">
    <rect width="390" height="844" rx="34" fill="#f7f8f5" stroke="#17201b" stroke-width="3"/><text x="20" y="41" fill="#435149" font-size="11">‹ Chat</text><text x="195" y="41" fill="#17201b" font-size="17" font-weight="850" text-anchor="middle">Manimani Loom</text><text x="370" y="40" fill="#23845b" font-size="9" font-weight="800" text-anchor="end">16 LOOPS</text>
    <text x="20" y="83" fill="#17201b" font-size="25" font-weight="900">いま動く、流れの編み目</text><text x="20" y="110" fill="#637069" font-size="10">critical pathとblockerを先に表示。</text>
    <g transform="translate(20 132)"><rect width="350" height="76" rx="20" fill="#fdeae6" stroke="#c63c3c" stroke-width="2"/><use href="#runner" x="12" y="9" width="58" height="58"/><text x="82" y="27" fill="#c63c3c" font-size="8" font-weight="850">BLOCKED · CRITICAL PATH</text><text x="82" y="52" fill="#17201b" font-size="13" font-weight="850">Release / shell</text><text x="82" y="68" fill="#637069" font-size="8">visual approval · owner: you · 21m</text><text x="332" y="48" fill="#17201b" font-size="18" text-anchor="end">›</text></g>
    <text x="20" y="246" fill="#637069" font-size="9" font-weight="850">BY SYSTEM</text>
    <g transform="translate(20 260)"><rect width="350" height="110" rx="22" fill="#fff" stroke="#d8ded9" stroke-width="2"/><text x="16" y="27" fill="#17201b" font-size="13" font-weight="850">Mail observation</text><text x="334" y="27" fill="#23845b" font-size="9" text-anchor="end">3 running</text><use href="#runner" x="16" y="40" width="50" height="50"/><use href="#runner" x="65" y="40" width="50" height="50"/><use href="#runner" x="114" y="40" width="50" height="50"/><text x="180" y="61" fill="#637069" font-size="9">18 fetched</text><text x="180" y="82" fill="#17201b" font-size="10" font-weight="750">3 Issue proposals</text></g>
    <g transform="translate(20 384)"><rect width="350" height="110" rx="22" fill="#fff" stroke="#d8ded9" stroke-width="2"/><text x="16" y="27" fill="#17201b" font-size="13" font-weight="850">Product changes</text><text x="334" y="27" fill="#23845b" font-size="9" text-anchor="end">7 running</text><use href="#runner" x="16" y="40" width="50" height="50"/><use href="#runner" x="65" y="40" width="50" height="50"/><use href="#runner" x="114" y="40" width="50" height="50"/><use href="#runner" x="163" y="40" width="50" height="50"/><text x="226" y="61" fill="#637069" font-size="9">+3 hidden</text><text x="226" y="82" fill="#17201b" font-size="10">Design · Code</text></g>
    <g transform="translate(20 508)"><rect width="350" height="110" rx="22" fill="#fff" stroke="#d8ded9" stroke-width="2"/><text x="16" y="27" fill="#17201b" font-size="13" font-weight="850">Verification</text><text x="334" y="27" fill="#9b5d00" font-size="9" text-anchor="end">2 run · 3 wait</text><use href="#runner" x="16" y="40" width="50" height="50"/><use href="#runner" x="65" y="40" width="50" height="50"/><circle cx="139" cy="65" r="22" fill="#eef3ef"/><text x="139" y="69" fill="#637069" font-size="8" font-weight="800" text-anchor="middle">+3</text><text x="180" y="61" fill="#637069" font-size="9">CI · Review</text><text x="180" y="82" fill="#17201b" font-size="10">4 receipts pending</text></g>
    <rect x="20" y="641" width="350" height="65" rx="18" fill="#eef3ef"/><text x="36" y="667" fill="#637069" font-size="9" font-weight="800">RESOURCE POOL</text><text x="36" y="690" fill="#17201b" font-size="10">Observation 3/8 · Write 4/4 · CI 2/4</text><rect x="20" y="727" width="350" height="50" rx="16" fill="#17201b"/><text x="195" y="758" fill="#fff" font-size="10" font-weight="850" text-anchor="middle">critical pathを歩く →</text><text x="195" y="812" fill="#637069" font-size="8" text-anchor="middle">画面外のまにまに君はanimation停止</text>
  </g>

  <!-- MAIL TRAIL -->
  <g id="Mail-trail" transform="translate(850 40)" font-family="'Noto Sans JP',-apple-system,sans-serif" filter="url(#s)">
    <rect width="390" height="844" rx="34" fill="#fffaf0" stroke="#17201b" stroke-width="3"/><text x="20" y="41" fill="#435149" font-size="11">‹ Loom</text><text x="195" y="41" fill="#17201b" font-size="17" font-weight="850" text-anchor="middle">Loop Trail</text><rect x="301" y="21" width="69" height="27" rx="14" fill="#eaf8f2"/><text x="335" y="39" fill="#23845b" font-size="8" font-weight="850" text-anchor="middle">RUNNING</text>
    <text x="20" y="86" fill="#637069" font-size="9" font-weight="850">MAIL-01 · READ ONLY</text><text x="20" y="118" fill="#17201b" font-size="25" font-weight="900">メール取得まにまに君</text><text x="20" y="145" fill="#637069" font-size="10">観測から安全なIssue提案まで。</text>
    <g transform="translate(20 172)"><path d="M36 20v417" stroke="#c9d0cb" stroke-width="4"/><use href="#runner" x="4" y="-8" width="64" height="64"/><g font-size="10"><circle cx="36" cy="90" r="12" fill="#23845b"/><text x="36" y="94" fill="#fff" font-weight="850" text-anchor="middle">✓</text><text x="70" y="86" fill="#17201b" font-size="13" font-weight="850">Fetch</text><text x="70" y="105" fill="#637069" font-size="9">18 messages · cursor saved</text><circle cx="36" cy="161" r="12" fill="#23845b"/><text x="36" y="165" fill="#fff" font-weight="850" text-anchor="middle">✓</text><text x="70" y="157" fill="#17201b" font-size="13" font-weight="850">Normalize &amp; classify</text><text x="70" y="176" fill="#637069" font-size="9">work 7 · reference 9 · private 2</text><circle cx="36" cy="232" r="14" fill="#f2b84b" stroke="#17201b" stroke-width="2"/><text x="36" y="236" fill="#17201b" font-weight="900" text-anchor="middle">3</text><text x="70" y="228" fill="#17201b" font-size="13" font-weight="850">Link context</text><text x="70" y="247" fill="#637069" font-size="9">repo候補とidentityを照合中</text><circle cx="36" cy="303" r="12" fill="#fff" stroke="#637069" stroke-width="2"/><text x="70" y="299" fill="#637069" font-size="13" font-weight="850">Deduplicate</text><text x="70" y="318" fill="#637069" font-size="9">類似Issueを確認</text><circle cx="36" cy="374" r="12" fill="#fff" stroke="#637069" stroke-width="2"/><text x="70" y="370" fill="#637069" font-size="13" font-weight="850">Propose Issue</text><text x="70" y="389" fill="#637069" font-size="9">redacted previewを作成</text><circle cx="36" cy="437" r="12" fill="#fff" stroke="#637069" stroke-width="2"/><text x="70" y="433" fill="#637069" font-size="13" font-weight="850">Policy → Create → Learn</text></g></g>
    <rect x="20" y="635" width="350" height="90" rx="20" fill="#eee6fa"/><text x="36" y="663" fill="#68459b" font-size="9" font-weight="850">PRIVATE DATA BOUNDARY</text><text x="36" y="689" fill="#17201b" font-size="10">本文・添付はlocalに保持</text><text x="36" y="710" fill="#637069" font-size="9">GitHub出力は根拠付きredacted summaryのみ</text><rect x="20" y="744" width="350" height="48" rx="16" fill="#fff" stroke="#17201b"/><text x="195" y="774" fill="#17201b" font-size="10" font-weight="800" text-anchor="middle">Pause loop</text><text x="195" y="818" fill="#637069" font-size="8" text-anchor="middle">repo writeはIssue作成時だけ承認</text>
  </g>

  <!-- TOPOLOGY -->
  <g id="Receipt-back-walk" transform="translate(1260 40)" font-family="'Noto Sans JP',-apple-system,sans-serif" filter="url(#s)">
    <rect width="390" height="844" rx="34" fill="#f7f8f5" stroke="#17201b" stroke-width="3"/><text x="20" y="41" fill="#435149" font-size="11">‹ Loom</text><text x="195" y="41" fill="#17201b" font-size="17" font-weight="850" text-anchor="middle">Topology</text>
    <text x="20" y="85" fill="#17201b" font-size="24" font-weight="900">ゴールから道をほどく</text><text x="20" y="112" fill="#637069" font-size="10">計画は逆向き、実行は依存関係順。</text>
    <text x="20" y="155" fill="#68459b" font-size="9" font-weight="850">PLAN · RECEIPT-BACK WALK ←</text><rect x="20" y="170" width="350" height="163" rx="22" fill="#eee6fa"/><path d="M48 245C100 188 151 302 205 238s98-45 132-22" fill="none" stroke="#68459b" stroke-width="4" stroke-dasharray="5 7"/><g fill="#fff" stroke="#17201b" stroke-width="2"><circle cx="48" cy="245" r="18"/><circle cx="126" cy="226" r="18"/><circle cx="205" cy="238" r="18"/><circle cx="278" cy="210" r="18"/><circle cx="337" cy="216" r="18" fill="#ffd76a"/></g><g fill="#17201b" font-size="7" font-weight="850" text-anchor="middle"><text x="48" y="248">SOURCE</text><text x="126" y="229">ISSUE</text><text x="205" y="241">CHANGE</text><text x="278" y="213">CHECK</text><text x="337" y="219">RECEIPT</text></g><use href="#runner" x="236" y="235" width="54" height="54"/><text x="36" y="315" fill="#68459b" font-size="9">「このreceiptに何が必要？」を逆向きに展開</text>
    <text x="20" y="378" fill="#23845b" font-size="9" font-weight="850">EXECUTE · FORWARD WALK →</text><rect x="20" y="393" width="350" height="163" rx="22" fill="#eaf8f2"/><path d="M48 474C100 417 151 531 205 467s98-45 132-22" fill="none" stroke="#23845b" stroke-width="4"/><g fill="#fff" stroke="#17201b" stroke-width="2"><circle cx="48" cy="474" r="18" fill="#65ccb2"/><circle cx="126" cy="455" r="18"/><circle cx="205" cy="467" r="18"/><circle cx="278" cy="439" r="18"/><circle cx="337" cy="445" r="18"/></g><g fill="#17201b" font-size="7" font-weight="850" text-anchor="middle"><text x="48" y="477">SOURCE</text><text x="126" y="458">ISSUE</text><text x="205" y="470">CHANGE</text><text x="278" y="442">CHECK</text><text x="337" y="448">RECEIPT</text></g><use href="#runner" x="50" y="484" width="54" height="54"/><text x="36" y="538" fill="#23845b" font-size="9">依存がverifiedになったnodeだけを実行</text>
    <rect x="20" y="582" width="350" height="105" rx="20" fill="#fff" stroke="#d8ded9" stroke-width="2"/><text x="36" y="610" fill="#637069" font-size="9" font-weight="850">CURRENT LEVERAGE POINT</text><text x="36" y="641" fill="#17201b" font-size="15" font-weight="900">Issue contextを確定する</text><text x="36" y="665" fill="#637069" font-size="9">ここで計画laneと実行laneが合流</text>
    <rect x="20" y="710" width="350" height="52" rx="17" fill="url(#sun)" stroke="#17201b" stroke-width="2"/><text x="195" y="742" fill="#17201b" font-size="10" font-weight="900" text-anchor="middle">この道をWalkで開く →</text><text x="195" y="812" fill="#637069" font-size="8" text-anchor="middle">方向は色だけでなく矢印とlane labelで表示</text>
  </g>
</svg>
