<svg xmlns="http://www.w3.org/2000/svg" width="1024" height="1024" viewBox="0 0 1024 1024">
  <rect width="1024" height="1024" fill="#fffaf0"/>
  <!-- A single, readable silhouette for image-to-3D reconstruction. -->
  <g stroke="#17201b" stroke-linecap="round" stroke-linejoin="round">
    <circle cx="512" cy="512" r="398" fill="#40345f" stroke-width="34"/>
    <circle cx="512" cy="512" r="324" fill="#fffaf0" stroke-width="26"/>
    <g fill="none" stroke="#ffd76a" stroke-width="30">
      <path d="M512 126v772M126 512h772M239 239l546 546M785 239 239 785"/>
    </g>
    <circle cx="512" cy="512" r="42" fill="#fffaf0" stroke-width="22"/>

    <!-- Manimani-kun runs inside the wheel like a hamster. -->
    <g transform="translate(168 272)">
      <path d="M136 341Q80 300 60 245Q40 184 78 139Q111 100 173 102L212 70Q241 46 267 83L279 111Q343 123 381 169Q420 217 407 282Q398 328 356 363Q304 405 216 398Q166 394 136 341Z"
            fill="#ffd76a" stroke-width="24"/>
      <path d="M175 109l-7-75 70 59M307 119l44-61 26 80" fill="#ffd76a" stroke-width="22"/>
      <path d="M164 114q-36-57-75-22q-25 24 10 71M334 133q44-49 76-7q20 28-20 59"
            fill="#ffbeaa" stroke-width="20"/>
      <circle cx="300" cy="188" r="16" fill="#17201b" stroke="none"/>
      <ellipse cx="350" cy="238" rx="56" ry="43" fill="#ffbeaa" stroke-width="18"/>
      <circle cx="334" cy="231" r="7" fill="#17201b" stroke="none"/>
      <circle cx="368" cy="231" r="7" fill="#17201b" stroke="none"/>
      <path d="M333 257q18 17 37 0" fill="none" stroke-width="10"/>
      <path d="M119 340L63 413M203 390l-9 85M290 382l45 77M352 348l72 55" fill="none" stroke-width="30"/>
      <path d="M62 413l-32 2M194 475l-29 11M335 459l25 20M424 403l30 5" fill="none" stroke-width="24"/>
      <path d="M75 194Q15 161 8 218" fill="none" stroke-width="18"/>
      <path d="M97 383q115 46 244 5" fill="none" stroke="#23845b" stroke-width="15" stroke-dasharray="22 25"/>
    </g>
  </g>
</svg>
